# This file uses centimeters as units for non-parametric coordinates.

v -0.264530 -0.405279 0.120442
v 0.264530 -0.405279 0.120442
v -0.264530 -0.227415 0.057010
v 0.264530 -0.227415 0.057010
v -0.264530 -0.023408 -0.019061
v 0.264530 -0.023408 -0.019061
v -0.264530 0.183788 -0.026921
v 0.264530 0.183788 -0.026921
v -0.264530 0.360486 0.036408
v 0.264530 0.360486 0.036408
v -0.264530 0.516888 0.126002
v 0.264530 0.516888 0.126002
v 0.000000 -0.424038 0.050438
v 0.000000 -0.246174 -0.012996
v 0.000000 -0.042167 -0.089066
v 0.000000 0.165031 -0.096926
v 0.000000 0.341729 -0.033598
v 0.000000 0.498131 0.055998
vt 0.941352 0.180743
vt 0.757839 0.181205
vt 0.754723 0.010925
vt 0.938236 0.010463
vt 0.574326 0.181668
vt 0.571210 0.011388
vt 0.390813 0.182131
vt 0.387697 0.011850
vt 0.207300 0.182593
vt 0.204184 0.012313
vt 0.023787 0.183056
vt 0.020671 0.012776
vt 0.944469 0.351023
vt 0.760956 0.351486
vt 0.577443 0.351948
vt 0.393930 0.352411
vt 0.210417 0.352874
vt 0.026904 0.353336
vn 0.000000 0.335916 0.941892
vn 0.000000 0.343235 0.939250
vn 0.263280 0.330934 0.906182
vn 0.263437 0.324050 0.908621
vn 0.000000 0.343235 0.939250
vn 0.000000 0.201715 0.979444
vn 0.263764 0.191319 0.945423
vn 0.263280 0.330934 0.906182
vn 0.000000 0.201715 0.979444
vn 0.000000 -0.129906 0.991526
vn 0.242905 -0.150761 0.958263
vn 0.263764 0.191319 0.945423
vn 0.000000 -0.129906 0.991526
vn 0.000000 -0.408487 0.912764
vn 0.204829 -0.416734 0.885651
vn 0.242905 -0.150761 0.958263
vn 0.000000 -0.408487 0.912764
vn 0.000000 -0.497068 0.867712
vn 0.190814 -0.487935 0.851769
vn 0.204829 -0.416734 0.885651
vn -0.263437 0.324050 0.908621
vn -0.263280 0.330934 0.906182
vn 0.000000 0.343235 0.939250
vn 0.000000 0.335916 0.941892
vn -0.263280 0.330934 0.906182
vn -0.263764 0.191319 0.945423
vn 0.000000 0.201715 0.979444
vn 0.000000 0.343235 0.939250
vn -0.263764 0.191319 0.945423
vn -0.242905 -0.150761 0.958263
vn 0.000000 -0.129906 0.991526
vn 0.000000 0.201715 0.979444
vn -0.242905 -0.150761 0.958263
vn -0.204829 -0.416734 0.885651
vn 0.000000 -0.408487 0.912764
vn 0.000000 -0.129906 0.991526
vn -0.204829 -0.416734 0.885651
vn -0.190814 -0.487935 0.851769
vn 0.000000 -0.497068 0.867712
vn 0.000000 -0.408487 0.912764
s off
f 13/1/1 14/2/2 3/3/3 1/4/4
f 14/2/5 15/5/6 5/6/7 3/3/8
f 15/5/9 16/7/10 7/8/11 5/6/12
f 16/7/13 17/9/14 9/10/15 7/8/16
f 17/9/17 18/11/18 11/12/19 9/10/20
f 2/13/21 4/14/22 14/2/23 13/1/24
f 4/14/25 6/15/26 15/5/27 14/2/28
f 6/15/29 8/16/30 16/7/31 15/5/32
f 8/16/33 10/17/34 17/9/35 16/7/36
f 10/17/37 12/18/38 18/11/39 17/9/40
