# This file uses centimeters as units for non-parametric coordinates.

v -0.011830 -0.118809 0.000000
v -0.016730 -0.130639 0.000000
v -0.011830 -0.142469 0.000000
v 0.000000 -0.147370 0.000000
v 0.011830 -0.142469 0.000000
v 0.016730 -0.130639 0.000000
v 0.011830 -0.118809 0.000000
v 0.000000 -0.113909 0.000000
v -0.020005 -0.110635 0.015911
v -0.028291 -0.130639 0.015911
v -0.020005 -0.150644 0.015911
v 0.000000 -0.158930 0.015911
v 0.020005 -0.150644 0.015911
v 0.028291 -0.130639 0.015912
v 0.020005 -0.110635 0.015912
v 0.000000 -0.102349 0.015911
v -0.026423 -0.097408 0.004909
v -0.046996 -0.130639 0.009834
v -0.033231 -0.163870 0.009834
v 0.000000 -0.177635 0.009834
v 0.033231 -0.163870 0.009834
v 0.046996 -0.130639 0.009834
v 0.033231 -0.097408 0.009834
v 0.000000 -0.083643 0.004909
v -0.026423 -0.097408 -0.004909
v -0.046996 -0.130639 -0.009834
v -0.033231 -0.163870 -0.009834
v 0.000000 -0.177635 -0.009834
v 0.033231 -0.163870 -0.009834
v 0.046996 -0.130639 -0.009834
v 0.033231 -0.097408 -0.009834
v 0.000000 -0.083643 -0.004909
v -0.020005 -0.110635 -0.015912
v -0.028291 -0.130639 -0.015911
v -0.020005 -0.150644 -0.015912
v 0.000000 -0.158930 -0.015911
v 0.020005 -0.150644 -0.015912
v 0.028291 -0.130639 -0.015912
v 0.020005 -0.110635 -0.015911
v 0.000000 -0.102349 -0.015911
v 0.000000 0.177635 0.002092
v -0.026423 0.177635 0.004909
v 0.000000 0.177635 -0.002092
v -0.026423 0.177635 -0.004909
v 0.000000 0.122444 0.002092
v 0.000000 0.122444 -0.002092
v -0.026423 0.119564 -0.004909
v -0.026423 0.119564 0.004909
v 0.045990 0.122444 0.002211
v 0.045990 0.122444 -0.002211
v 0.045990 0.177635 -0.002211
v 0.045990 0.177635 0.002211
v 0.000000 0.087076 0.002092
v 0.000000 0.087076 -0.002129
v -0.026423 0.082328 -0.004909
v -0.026423 0.082328 0.004909
v 0.000000 0.061311 0.002300
v 0.000000 0.061311 -0.002300
v -0.026423 0.055202 -0.004909
v -0.026423 0.055202 0.004909
v 0.032893 0.061311 0.001804
v 0.032893 0.061311 -0.001804
v 0.032893 0.087076 -0.001804
v 0.032893 0.087076 0.001804
v -0.005915 -0.116359 0.000000
v -0.010002 -0.106492 0.015911
v -0.016616 -0.090526 0.009834
v -0.016615 0.058257 0.009834
v -0.016615 0.084702 0.009834
v -0.016615 0.121004 0.009834
v -0.016616 0.177635 0.009834
v -0.016616 0.177635 -0.009834
v -0.016615 0.121004 -0.009834
v -0.016615 0.084702 -0.009834
v -0.016615 0.058257 -0.004909
v -0.016616 -0.090526 -0.009834
v -0.010002 -0.106492 -0.015911
vt 0.000000 1.000000
vt 0.125000 1.000000
vt 0.250000 1.000000
vt 0.375000 1.000000
vt 0.500000 1.000000
vt 0.625000 1.000000
vt 0.750000 1.000000
vt 0.875000 1.000000
vt 1.000000 1.000000
vt 0.000000 0.800000
vt 0.125000 0.800000
vt 0.250000 0.800000
vt 0.375000 0.800000
vt 0.500000 0.800000
vt 0.625000 0.800000
vt 0.750000 0.800000
vt 0.875000 0.800000
vt 1.000000 0.800000
vt 0.000000 0.600000
vt 0.125000 0.600000
vt 0.250000 0.600000
vt 0.375000 0.600000
vt 0.500000 0.600000
vt 0.625000 0.600000
vt 0.750000 0.600000
vt 0.875000 0.600000
vt 1.000000 0.600000
vt 0.000000 0.400000
vt 0.125000 0.400000
vt 0.250000 0.400000
vt 0.375000 0.400000
vt 0.500000 0.400000
vt 0.625000 0.400000
vt 0.750000 0.400000
vt 0.875000 0.400000
vt 1.000000 0.400000
vt 0.000000 0.200000
vt 0.125000 0.200000
vt 0.250000 0.200000
vt 0.375000 0.200000
vt 0.500000 0.200000
vt 0.625000 0.200000
vt 0.750000 0.200000
vt 0.875000 0.200000
vt 1.000000 0.200000
vt 0.000000 0.000000
vt 0.125000 0.000000
vt 0.250000 0.000000
vt 0.375000 0.000000
vt 0.500000 0.000000
vt 0.625000 0.000000
vt 0.750000 0.000000
vt 0.875000 0.000000
vt 1.000000 0.000000
vt 1.000000 0.600000
vt 0.875000 0.600000
vt 0.875000 0.400000
vt 1.000000 0.400000
vt 0.875000 0.600000
vt 0.875000 0.400000
vt 1.000000 0.400000
vt 1.000000 0.600000
vt 0.875000 0.600000
vt 0.875000 0.400000
vt 0.875000 0.400000
vt 0.875000 0.600000
vt 0.875000 0.600000
vt 0.875000 0.400000
vt 1.000000 0.400000
vt 1.000000 0.600000
vt 0.875000 0.600000
vt 0.875000 0.400000
vt 1.000000 0.400000
vt 1.000000 0.600000
vt 0.875000 0.600000
vt 0.875000 0.400000
vt 0.875000 0.400000
vt 0.875000 0.600000
vt 0.937500 0.000000
vt 0.937500 1.000000
vt 0.937500 0.800000
vt 0.937500 0.600000
vt 0.937500 0.600000
vt 0.937500 0.600000
vt 0.937500 0.600000
vt 0.937500 0.600000
vt 0.937500 0.400000
vt 0.937500 0.400000
vt 0.937500 0.400000
vt 0.937500 0.400000
vt 0.937500 0.400000
vt 0.937500 0.200000
vn 0.809016 -0.000000 0.587786
vn 0.647022 -0.490028 0.584153
vn 0.647022 -0.490028 0.584153
vn 0.809016 0.000000 0.587786
vn 0.572060 0.572062 0.587786
vn 0.572061 0.572061 0.587786
vn -0.000000 0.809017 0.587785
vn -0.000000 0.809017 0.587785
vn -0.572061 0.572062 0.587785
vn -0.572062 0.572061 0.587785
vn -0.809017 -0.000001 0.587785
vn -0.809017 -0.000001 0.587785
vn -0.572062 -0.572061 0.587786
vn -0.572061 -0.572061 0.587786
vn -0.111011 -0.804016 0.584153
vn -0.111011 -0.804016 0.584153
vn 0.317738 -0.767092 0.557326
vn 0.317738 -0.767092 0.557326
vn -0.371475 0.086838 0.924373
vn -0.413670 0.311235 0.855576
vn -0.840325 0.063786 0.538317
vn -0.368823 0.076821 0.926320
vn -0.218507 -0.218507 0.951057
vn -0.218507 -0.218507 0.951057
vn -0.000000 -0.309015 0.951057
vn -0.000000 -0.309015 0.951057
vn 0.218508 -0.218507 0.951057
vn 0.218508 -0.218508 0.951057
vn 0.309018 -0.000000 0.951056
vn 0.309018 -0.000000 0.951056
vn 0.203331 0.291555 0.934694
vn 0.201241 0.294657 0.934173
vn 0.060568 0.438676 0.896602
vn 0.309184 0.077573 0.947833
vn -0.182948 0.398377 0.898791
vn -0.092938 0.048827 0.994474
vn -0.999971 0.007587 0.000001
vn -0.850254 0.526373 0.000003
vn -0.850254 0.526373 0.000003
vn -0.999971 0.007588 0.000001
vn -0.707107 -0.707107 0.000000
vn -0.707107 -0.707107 0.000000
vn 0.000000 -1.000000 0.000000
vn 0.000000 -1.000000 0.000000
vn 0.707107 -0.707107 0.000001
vn 0.707107 -0.707106 0.000001
vn 1.000000 -0.000000 0.000001
vn 1.000000 0.000000 0.000001
vn 0.759649 0.650333 0.000000
vn 0.759649 0.650333 0.000000
vn 0.382685 0.923879 0.000000
vn 0.382685 0.923879 0.000000
vn 0.000001 1.000000 0.000000
vn 0.000000 1.000000 0.000000
vn 0.000000 1.000000 0.000000
vn 0.000001 1.000000 0.000000
vn -0.368824 0.076819 -0.926319
vn -0.810791 0.075200 -0.580485
vn -0.413669 0.311235 -0.855576
vn -0.371476 0.086837 -0.924372
vn -0.218509 -0.218509 -0.951056
vn -0.218509 -0.218508 -0.951056
vn 0.000000 -0.309018 -0.951056
vn 0.000000 -0.309018 -0.951056
vn 0.218510 -0.218509 -0.951056
vn 0.218510 -0.218509 -0.951056
vn 0.309019 -0.000001 -0.951056
vn 0.309019 -0.000001 -0.951056
vn 0.201240 0.294657 -0.934173
vn 0.203330 0.291554 -0.934694
vn 0.191737 0.093847 -0.976949
vn 0.060568 0.438675 -0.896602
vn -0.046237 0.064048 -0.996875
vn -0.182948 0.398378 -0.898791
vn 0.809017 0.000000 -0.587785
vn 0.647023 -0.490029 -0.584152
vn 0.647023 -0.490029 -0.584152
vn 0.809017 -0.000000 -0.587785
vn 0.572061 0.572062 -0.587785
vn 0.572061 0.572062 -0.587785
vn 0.000000 0.809017 -0.587785
vn 0.000000 0.809017 -0.587785
vn -0.572062 0.572061 -0.587785
vn -0.572062 0.572062 -0.587785
vn -0.809017 0.000001 -0.587785
vn -0.809017 0.000001 -0.587785
vn -0.572061 -0.572061 -0.587786
vn -0.572061 -0.572061 -0.587786
vn -0.111011 -0.804016 -0.584153
vn -0.111011 -0.804016 -0.584153
vn 0.317740 -0.767092 -0.557325
vn 0.317740 -0.767092 -0.557325
vn -0.837819 -0.000004 0.545949
vn 0.093788 -0.000000 0.995592
vn 0.100331 -0.000000 0.994954
vn -0.834719 -0.000007 0.550676
vn 1.000000 0.000000 0.000000
vn 1.000000 0.000000 0.000000
vn 1.000000 0.000000 0.000000
vn 1.000000 0.000000 0.000000
vn 0.100330 -0.000000 -0.994954
vn 0.093494 0.000130 -0.995620
vn -0.837818 -0.000004 -0.545949
vn -0.834718 -0.000007 -0.550677
vn 1.000000 0.000000 0.000000
vn 1.000000 0.000000 0.000000
vn 1.000000 0.000000 0.000000
vn 1.000000 0.000000 0.000000
vn 0.089658 -0.036996 -0.995285
vn -0.814004 -0.026087 -0.580274
vn -0.838372 0.000000 0.545099
vn 0.090664 0.001127 0.995881
vn -0.000000 -1.000000 0.000000
vn -0.000000 -1.000000 0.000000
vn -0.000000 -1.000000 0.000000
vn -0.000000 -1.000000 0.000000
vn -0.002587 0.000000 -0.999997
vn -0.002587 0.000000 -0.999997
vn -0.002587 0.000000 -0.999997
vn -0.002587 0.000000 -0.999997
vn 0.000000 1.000000 0.000000
vn 0.000000 1.000000 0.000000
vn 0.000000 1.000000 0.000000
vn 0.000000 1.000000 0.000000
vn -0.002587 0.000000 0.999997
vn -0.002587 0.000000 0.999997
vn -0.002587 0.000000 0.999997
vn -0.002587 0.000000 0.999997
vn 1.000000 0.000000 0.000000
vn 1.000000 0.000000 0.000000
vn 1.000000 0.000000 0.000000
vn 1.000000 0.000000 0.000000
vn 0.074358 0.005385 -0.997217
vn -0.754483 0.003087 -0.656313
vn -0.815060 0.000001 0.579377
vn 0.089273 0.005503 0.995992
vn 1.000000 0.000000 0.000000
vn 1.000000 0.000000 0.000000
vn 1.000000 0.000000 0.000000
vn 1.000000 0.000000 0.000000
vn 0.000000 -1.000000 0.000002
vn 0.000000 -1.000000 0.000002
vn 0.000000 -1.000000 0.000002
vn 0.000000 -1.000000 0.000002
vn 0.012483 0.003323 -0.999917
vn 0.012483 0.003323 -0.999917
vn 0.012483 0.003323 -0.999917
vn 0.012483 0.003323 -0.999917
vn 0.000000 1.000000 0.000000
vn 0.000000 1.000000 0.000000
vn 0.000000 1.000000 0.000000
vn 0.000000 1.000000 0.000000
vn 0.011924 0.004036 0.999921
vn 0.011924 0.004036 0.999921
vn 0.011924 0.004036 0.999921
vn 0.011924 0.004036 0.999921
vn 0.361688 0.007453 0.932269
vn 0.420367 0.001379 0.907353
vn 0.422330 0.000001 0.906442
vn 0.422328 0.000002 0.906443
vn 0.422010 0.000172 -0.906591
vn 0.422327 0.000002 -0.906444
vn 0.380378 -0.031805 -0.924284
vn 0.231976 0.004158 -0.972713
s 1
f 2/2/1 1/1/2 9/10/3 10/11/4
f 3/3/5 2/2/1 10/11/4 11/12/6
f 4/4/7 3/3/5 11/12/6 12/13/8
f 5/5/9 4/4/7 12/13/8 13/14/10
f 6/6/11 5/5/9 13/14/10 14/15/12
f 7/7/13 6/6/11 14/15/12 15/16/14
f 8/8/15 7/7/13 15/16/14 16/17/16
f 1/9/2 65/80/17 66/81/18 9/18/3
s 2
f 10/11/19 9/10/20 17/19/21 18/20/22
f 11/12/23 10/11/19 18/20/22 19/21/24
f 12/13/25 11/12/23 19/21/24 20/22/26
f 13/14/27 12/13/25 20/22/26 21/23/28
f 14/15/29 13/14/27 21/23/28 22/24/30
f 15/16/31 14/15/29 22/24/30 23/25/32
f 16/17/33 15/16/31 23/25/32 24/26/34
f 9/18/20 66/81/35 67/82/36 17/27/21
s 3
f 18/20/37 17/19/38 25/28/39 26/29/40
f 19/21/41 18/20/37 26/29/40 27/30/42
f 20/22/43 19/21/41 27/30/42 28/31/44
f 21/23/45 20/22/43 28/31/44 29/32/46
f 22/24/47 21/23/45 29/32/46 30/33/48
f 23/25/49 22/24/47 30/33/48 31/34/50
f 24/26/51 23/25/49 31/34/50 32/35/52
s 4
f 42/55/53 71/86/54 72/87/55 44/58/56
s 2
f 26/29/57 25/28/58 33/37/59 34/38/60
f 27/30/61 26/29/57 34/38/60 35/39/62
f 28/31/63 27/30/61 35/39/62 36/40/64
f 29/32/65 28/31/63 36/40/64 37/41/66
f 30/33/67 29/32/65 37/41/66 38/42/68
f 31/34/69 30/33/67 38/42/68 39/43/70
f 32/35/71 31/34/69 39/43/70 40/44/72
f 25/36/58 76/91/73 77/92/74 33/45/59
s 6
f 34/38/75 33/37/76 1/46/77 2/47/78
f 35/39/79 34/38/75 2/47/78 3/48/80
f 36/40/81 35/39/79 3/48/80 4/49/82
f 37/41/83 36/40/81 4/49/82 5/50/84
f 38/42/85 37/41/83 5/50/84 6/51/86
f 39/43/87 38/42/85 6/51/86 7/52/88
f 40/44/89 39/43/87 7/52/88 8/53/90
f 33/45/76 77/92/91 65/79/92 1/54/77
s 2
f 48/62/93 70/85/94 71/86/95 42/55/96
s off
f 49/63/97 50/64/98 51/65/99 52/66/100
s 2
f 72/87/101 73/88/102 47/61/103 44/58/104
f 47/61/103 48/62/93 42/55/96 44/58/104
s off
f 53/67/105 54/68/106 46/60/107 45/59/108
s 2
f 73/88/102 74/89/109 55/69/110 47/61/103
f 55/69/110 56/70/111 48/62/93 47/61/103
f 56/70/111 69/84/112 70/85/94 48/62/93
s off
f 45/59/113 46/60/114 50/64/115 49/63/116
f 46/60/117 43/57/118 51/65/119 50/64/120
s 4
f 43/57/121 41/56/122 52/66/123 51/65/124
s off
f 41/56/125 45/59/126 49/63/127 52/66/128
f 61/75/129 62/76/130 63/77/131 64/78/132
s 2
f 74/89/109 75/90/133 59/73/134 55/69/110
f 59/73/134 60/74/135 56/70/111 55/69/110
f 60/74/135 68/83/136 69/84/112 56/70/111
s off
f 24/26/137 32/35/138 58/72/139 57/71/140
s 2
f 75/90/133 76/91/73 25/36/58 59/73/134
f 25/36/58 17/27/21 60/74/135 59/73/134
f 17/27/21 67/82/36 68/83/136 60/74/135
s off
f 57/71/141 58/72/142 62/76/143 61/75/144
f 58/72/145 54/68/146 63/77/147 62/76/148
f 54/68/149 53/67/150 64/78/151 63/77/152
f 53/67/153 57/71/154 61/75/155 64/78/156
s 1
f 66/81/18 65/80/17 8/8/15 16/17/16
s 2
f 67/82/36 66/81/35 16/17/33 24/26/34
f 68/83/136 67/82/36 24/26/34 57/71/157
f 69/84/112 68/83/136 57/71/157 53/67/158
f 70/85/94 69/84/112 53/67/158 45/59/159
f 71/86/95 70/85/94 45/59/159 41/56/160
s 4
f 72/87/55 71/86/54 41/56/122 43/57/121
s 2
f 46/60/161 73/88/102 72/87/101 43/57/162
f 54/68/163 74/89/109 73/88/102 46/60/161
f 58/72/164 75/90/133 74/89/109 54/68/163
f 32/35/71 76/91/73 75/90/133 58/72/164
f 77/92/74 76/91/73 32/35/71 40/44/72
s 6
f 65/79/92 77/92/91 40/44/89 8/53/90
