# This file uses centimeters as units for non-parametric coordinates.

mtllib BarrelPiece.mtl
g default
v -0.153135 0.068909 -0.001503
v 0.152995 0.069982 0.001524
v 0.142476 0.038939 -0.217457
v -0.138070 0.037955 -0.220230
v -0.142396 0.037709 0.217445
v 0.138150 0.038692 0.220218
v -0.118017 -0.026633 0.458539
v 0.109460 -0.025836 0.460788
v 0.091103 0.038707 -0.202309
v 0.035712 0.038564 -0.287187
v 0.012525 0.038483 -0.258653
v -0.010799 0.038401 -0.170563
v -0.022742 0.038360 -0.219090
v -0.046908 0.038275 -0.239276
v -0.091216 0.038120 -0.191777
v -0.152787 0.048679 0.000486
v -0.023720 0.018528 -0.216550
v -0.045050 0.018310 -0.235874
v -0.142288 0.018079 0.213433
v 0.138258 0.019063 0.216207
v 0.152585 0.049566 0.003340
v -0.117898 -0.045953 0.453371
v 0.109579 -0.045156 0.455620
v 0.087509 0.018904 -0.198179
v 0.143380 0.019151 -0.214695
v 0.032549 0.018389 -0.283707
v 0.014935 0.018648 -0.257553
v -0.009510 0.018432 -0.168561
v -0.089392 0.018247 -0.187968
v -0.139633 0.018199 -0.217542
vt 0.999201 0.500000
vt 0.999201 0.995653
vt 0.000799 0.995653
vt 0.000799 0.500000
vt 0.999201 0.252540
vt 0.000799 0.252540
vt 0.000799 0.005081
vt 0.999201 0.005081
vt 0.763448 0.995653
vt 0.619253 0.995653
vt 0.536733 0.995653
vt 0.453730 0.995653
vt 0.411227 0.995653
vt 0.325226 0.995653
vt 0.167542 0.995653
vt 0.000799 0.500000
vt 0.411227 0.995653
vt 0.325226 0.995653
vt 0.000799 0.252540
vt 0.999201 0.252540
vt 0.999201 0.500000
vt 0.000799 0.005081
vt 0.999201 0.005081
vt 0.763448 0.995653
vt 0.999201 0.995653
vt 0.619253 0.995653
vt 0.536733 0.995653
vt 0.453730 0.995653
vt 0.167542 0.995653
vt 0.000799 0.995653
vt 0.411227 0.995653
vt 0.325226 0.995653
vt 0.999201 0.252540
vt 0.999201 0.500000
vt 0.000799 0.500000
vt 0.000799 0.252540
vt 0.000799 0.005081
vt 0.999201 0.005081
vt 0.999201 0.995653
vt 0.763448 0.995653
vt 0.619253 0.995653
vt 0.536733 0.995653
vt 0.453730 0.995653
vt 0.167542 0.995653
vt 0.000799 0.995653
vn -0.002874 -0.998018 -0.062865
vn -0.016333 -0.992628 0.120092
vn -0.032896 -0.988894 0.144938
vn 0.005204 -0.980297 -0.197459
vn 0.001837 -0.997300 -0.073418
vn 0.005204 -0.980295 -0.197473
vn 0.005941 -0.966018 -0.258407
vn 0.005941 -0.966018 -0.258407
vn -0.175047 -0.963383 0.203107
vn 0.044623 -0.989680 0.136171
vn 0.025224 -0.994915 0.097511
vn 0.116924 -0.991571 0.055818
vn 0.010783 -0.990813 0.134811
vn 0.067651 -0.981119 0.181187
vn -0.077591 -0.988015 0.133441
vn 0.002299 0.997947 0.064003
vn 0.033986 0.988833 -0.145104
vn 0.020612 0.992718 -0.118689
vn -0.005379 0.980506 0.196415
vn -0.005379 0.980506 0.196415
vn -0.002126 0.997212 0.074594
vn -0.005941 0.966018 0.258407
vn -0.005941 0.966018 0.258407
vn 0.182133 0.962107 -0.202925
vn -0.045188 0.989389 -0.138087
vn -0.034500 0.994950 -0.094255
vn -0.115582 0.991624 -0.057649
vn -0.011529 0.990634 -0.136055
vn -0.071647 0.980684 -0.182004
vn 0.078163 0.987838 -0.134411
vn 0.652920 -0.097712 -0.751098
vn 0.652920 -0.097712 -0.751098
vn 0.652920 -0.097712 -0.751098
vn 0.652920 -0.097712 -0.751098
vn 0.995705 -0.016338 0.091132
vn 0.995705 -0.016337 0.091130
vn 0.999922 -0.002443 0.012219
vn 0.999983 -0.001394 0.005747
vn -0.999872 0.005787 -0.014909
vn -0.999965 0.003483 -0.007613
vn -0.997178 -0.021328 0.071974
vn -0.997179 -0.021327 0.071969
vn -0.008645 -0.258452 0.965986
vn -0.008645 -0.258452 0.965986
vn -0.008645 -0.258452 0.965986
vn -0.008645 -0.258452 0.965986
vn 0.993361 -0.020866 0.113132
vn 0.993361 -0.020866 0.113132
vn -0.995233 -0.027836 0.093471
vn -0.995233 -0.027836 0.093471
vn 0.998914 0.007007 -0.046071
vn 0.998914 0.007007 -0.046071
vn -0.279520 -0.146188 -0.948946
vn -0.279520 -0.146188 -0.948945
vn -0.279520 -0.146188 -0.948946
vn -0.279520 -0.146188 -0.948946
vn 0.815624 -0.238243 -0.527256
vn 0.815624 -0.238243 -0.527256
vn 0.815624 -0.238243 -0.527256
vn 0.815624 -0.238243 -0.527256
vn -0.800450 -0.053290 -0.597027
vn -0.800450 -0.053290 -0.597027
vn -0.929562 -0.095468 -0.356091
vn -0.929798 -0.095565 -0.355448
vn -0.959651 -0.109369 -0.259053
vn -0.959651 -0.109369 -0.259053
vn 0.964951 -0.022313 -0.261482
vn 0.964950 -0.022313 -0.261482
vn 0.964951 -0.022313 -0.261482
vn 0.964950 -0.022313 -0.261482
vn -0.719351 -0.187567 -0.668844
vn -0.719351 -0.187567 -0.668844
vn -0.719351 -0.187567 -0.668844
vn -0.719351 -0.187567 -0.668844
vn 0.508454 -0.136061 -0.850272
vn 0.508454 -0.136061 -0.850272
vn 0.508454 -0.136061 -0.850272
vn 0.508454 -0.136061 -0.850272
vn -0.997461 0.022426 -0.067599
vn -0.997461 0.022426 -0.067599
s 1
g pCylinder8
usemtl lambert3SG
f 16/35/1 18/32/2 17/31/3
f 19/36/4 16/35/1 21/34/5 20/33/6
f 22/37/7 19/36/4 20/33/6 23/38/8
f 24/40/9 25/39/10 21/34/5
f 26/41/11 24/40/9 21/34/5
f 27/42/12 26/41/11 21/34/5
f 28/43/13 27/42/12 21/34/5
f 16/35/1 17/31/3 28/43/13 21/34/5
f 16/35/1 29/44/14 18/32/2
f 16/35/1 30/45/15 29/44/14
s 3
f 1/16/16 13/17/17 14/18/18
f 5/19/19 6/20/20 2/21/21 1/16/16
f 7/22/22 8/23/23 6/20/20 5/19/19
f 9/24/24 2/21/21 3/25/25
f 10/26/26 2/21/21 9/24/24
f 11/27/27 2/21/21 10/26/26
f 12/28/28 2/21/21 11/27/27
f 1/16/16 2/21/21 12/28/28 13/17/17
f 1/16/16 14/18/18 15/29/29
f 1/16/16 15/29/29 4/30/30
s off
f 13/13/31 17/31/32 18/32/33 14/14/34
s 6
f 6/5/35 20/33/36 21/34/37 2/1/38
s 7
f 1/4/39 16/35/40 19/36/41 5/6/42
s off
f 7/7/43 22/37/44 23/38/45 8/8/46
s 6
f 8/8/47 23/38/48 20/33/36 6/5/35
s 7
f 5/6/42 19/36/41 22/37/49 7/7/50
s 6
f 2/1/38 21/34/37 25/39/51 3/2/52
s off
f 3/2/53 25/39/54 24/40/55 9/9/56
f 9/9/57 24/40/58 26/41/59 10/10/60
s 8
f 10/10/61 26/41/62 27/42/63 11/11/64
f 11/11/64 27/42/63 28/43/65 12/12/66
s off
f 12/12/67 28/43/68 17/31/69 13/13/70
f 14/14/71 18/32/72 29/44/73 15/15/74
f 15/15/75 29/44/76 30/45/77 4/3/78
s 7
f 4/3/79 30/45/80 16/35/40 1/4/39
