# This file uses centimeters as units for non-parametric coordinates.

v -0.500000 0.000000 0.500000
v -0.400000 0.000000 0.500000
v -0.300000 0.000000 0.500000
v 0.300000 0.000000 0.500000
v 0.400000 0.000000 0.500000
v 0.500000 0.000000 0.500000
v -0.500000 0.000000 0.400000
v -0.400000 0.000000 0.400000
v -0.300000 0.000000 0.400000
v 0.300000 0.000000 0.400000
v 0.400000 0.000000 0.400000
v 0.500000 0.000000 0.400000
v -0.500000 0.000000 0.300000
v -0.400000 0.000000 0.300000
v 0.400000 0.000000 0.300000
v 0.500000 0.000000 0.300000
v -0.500000 0.000000 -0.300000
v -0.400000 0.000000 -0.300000
v 0.400000 0.000000 -0.300000
v 0.500000 0.000000 -0.300000
v -0.500000 0.000000 -0.400000
v -0.400000 0.000000 -0.400000
v -0.300000 0.000000 -0.400000
v 0.300000 0.000000 -0.400000
v 0.400000 0.000000 -0.400000
v 0.500000 0.000000 -0.400000
v -0.500000 0.000000 -0.500000
v -0.400000 0.000000 -0.500000
v -0.300000 0.000000 -0.500000
v 0.300000 0.000000 -0.500000
v 0.400000 0.000000 -0.500000
v 0.500000 0.000000 -0.500000
vt 0.000000 0.000000
vt 0.100000 0.000000
vt 0.200000 0.000000
vt 0.800000 0.000000
vt 0.900000 0.000000
vt 1.000000 0.000000
vt 0.000000 0.100000
vt 0.100000 0.100000
vt 0.200000 0.100000
vt 0.800000 0.100000
vt 0.900000 0.100000
vt 1.000000 0.100000
vt 0.000000 0.200000
vt 0.100000 0.200000
vt 0.900000 0.200000
vt 1.000000 0.200000
vt 0.000000 0.800000
vt 0.100000 0.800000
vt 0.900000 0.800000
vt 1.000000 0.800000
vt 0.000000 0.900000
vt 0.100000 0.900000
vt 0.200000 0.900000
vt 0.800000 0.900000
vt 0.900000 0.900000
vt 1.000000 0.900000
vt 0.000000 1.000000
vt 0.100000 1.000000
vt 0.200000 1.000000
vt 0.800000 1.000000
vt 0.900000 1.000000
vt 1.000000 1.000000
vn 0.000000 1.000000 0.000000
vn 0.000000 1.000000 0.000000
vn 0.000000 1.000000 0.000000
vn 0.000000 1.000000 0.000000
vn 0.000000 1.000000 0.000000
vn 0.000000 1.000000 0.000000
vn 0.000000 1.000000 0.000000
vn 0.000000 1.000000 0.000000
vn 0.000000 1.000000 0.000000
vn 0.000000 1.000000 0.000000
vn 0.000000 1.000000 0.000000
vn 0.000000 1.000000 0.000000
vn 0.000000 1.000000 0.000000
vn 0.000000 1.000000 0.000000
vn 0.000000 1.000000 0.000000
vn 0.000000 1.000000 0.000000
vn 0.000000 1.000000 0.000000
vn 0.000000 1.000000 0.000000
vn 0.000000 1.000000 0.000000
vn 0.000000 1.000000 0.000000
vn 0.000000 1.000000 0.000000
vn 0.000000 1.000000 0.000000
vn 0.000000 1.000000 0.000000
vn 0.000000 1.000000 0.000000
vn 0.000000 1.000000 0.000000
vn 0.000000 1.000000 0.000000
vn 0.000000 1.000000 0.000000
vn 0.000000 1.000000 0.000000
vn 0.000000 1.000000 0.000000
vn 0.000000 1.000000 0.000000
vn 0.000000 1.000000 0.000000
vn 0.000000 1.000000 0.000000
s 1
f 1/1/1 2/2/2 8/8/3 7/7/4
f 2/2/2 3/3/5 9/9/6 8/8/3
s 2
f 4/4/7 5/5/8 11/11/9 10/10/10
f 5/5/8 6/6/11 12/12/12 11/11/9
s 1
f 7/7/4 8/8/3 14/14/13 13/13/14
s 2
f 11/11/9 12/12/12 16/16/15 15/15/16
s 3
f 17/17/17 18/18/18 22/22/19 21/21/20
s 4
f 19/19/21 20/20/22 26/26/23 25/25/24
s 3
f 21/21/20 22/22/19 28/28/25 27/27/26
f 22/22/19 23/23/27 29/29/28 28/28/25
s 4
f 24/24/29 25/25/24 31/31/30 30/30/31
f 25/25/24 26/26/23 32/32/32 31/31/30
