# This file uses centimeters as units for non-parametric coordinates.

v 0.475529 0.000000 -0.154509
v 0.404509 0.000000 -0.293893
v 0.293893 0.000000 -0.404509
v 0.154509 0.000000 -0.475529
v 0.000000 0.000000 -0.500000
v -0.154509 0.000000 -0.475528
v -0.293893 0.000000 -0.404509
v -0.404509 0.000000 -0.293893
v -0.475528 0.000000 -0.154509
v -0.500000 0.000000 0.000000
v -0.475528 0.000000 0.154509
v -0.404509 0.000000 0.293893
v -0.293893 0.000000 0.404509
v -0.154509 0.000000 0.475528
v -0.000000 0.000000 0.500000
v 0.154508 0.000000 0.475528
v 0.293893 0.000000 0.404509
v 0.404509 0.000000 0.293893
v 0.475528 0.000000 0.154509
v 0.500000 0.000000 0.000000
v 0.475529 0.309427 -0.154509
v 0.404509 0.309427 -0.293893
v 0.293893 0.309427 -0.404509
v 0.154509 0.309427 -0.475529
v 0.000000 0.309427 -0.500000
v -0.154509 0.309427 -0.475528
v -0.293893 0.309427 -0.404509
v -0.404509 0.309427 -0.293893
v -0.475528 0.309427 -0.154509
v -0.500000 0.309427 0.000000
v -0.475528 0.309427 0.154509
v -0.404509 0.309427 0.293893
v -0.293893 0.309427 0.404509
v -0.154509 0.309427 0.475528
v -0.000000 0.309427 0.500000
v 0.154508 0.309427 0.475528
v 0.293893 0.309427 0.404509
v 0.404509 0.309427 0.293893
v 0.475528 0.309427 0.154509
v 0.500000 0.309427 0.000000
vt -0.375814 0.274154
vt -0.288232 0.274154
vt -0.200651 0.274154
vt -0.113070 0.274154
vt -0.025488 0.274154
vt 0.062093 0.274154
vt 0.149675 0.274154
vt 0.237256 0.274154
vt 0.324837 0.274154
vt 0.412419 0.274154
vt 0.500000 0.274154
vt 0.587581 0.274154
vt 0.675163 0.274154
vt 0.762744 0.274154
vt 0.850325 0.274154
vt 0.937907 0.274154
vt 1.025488 0.274154
vt 1.113069 0.274154
vt 1.200651 0.274154
vt 1.288232 0.274154
vt 1.375813 0.274154
vt -0.375814 0.988771
vt -0.288232 0.988771
vt -0.200651 0.988771
vt -0.113070 0.979812
vt -0.025488 0.948326
vt 0.062093 0.914110
vt 0.149675 0.899528
vt 0.237256 0.914110
vt 0.324837 0.948326
vt 0.412419 0.979812
vt 0.500000 0.988771
vt 0.587581 0.988771
vt 0.675163 0.988771
vt 0.762744 0.980083
vt 0.850325 0.949552
vt 0.937907 0.916373
vt 1.025488 0.902232
vt 1.113069 0.916373
vt 1.200651 0.949552
vt 1.288232 0.980083
vt 1.375813 0.988771
vn 0.951057 0.000000 -0.309016
vn 0.809017 0.000000 -0.587785
vn 0.809017 0.000000 -0.587785
vn 0.951057 0.000000 -0.309016
vn 0.587785 0.000000 -0.809017
vn 0.587785 0.000000 -0.809017
vn 0.309017 0.000000 -0.951057
vn 0.309017 0.000000 -0.951057
vn -0.000000 0.000000 -1.000000
vn -0.000000 0.000000 -1.000000
vn -0.309017 0.000000 -0.951057
vn -0.309017 0.000000 -0.951057
vn -0.587785 0.000000 -0.809017
vn -0.587785 0.000000 -0.809017
vn -0.809017 0.000000 -0.587785
vn -0.809017 0.000000 -0.587785
vn -0.951057 0.000000 -0.309017
vn -0.951057 0.000000 -0.309017
vn -1.000000 0.000000 0.000000
vn -1.000000 0.000000 0.000000
vn -0.951057 0.000000 0.309017
vn -0.951057 0.000000 0.309017
vn -0.809017 0.000000 0.587785
vn -0.809017 0.000000 0.587785
vn -0.587785 0.000000 0.809017
vn -0.587785 0.000000 0.809017
vn -0.309017 0.000000 0.951057
vn -0.309017 0.000000 0.951057
vn 0.000000 0.000000 1.000000
vn 0.000000 0.000000 1.000000
vn 0.309017 0.000000 0.951057
vn 0.309017 0.000000 0.951057
vn 0.587785 0.000000 0.809017
vn 0.587785 0.000000 0.809017
vn 0.809017 0.000000 0.587785
vn 0.809017 0.000000 0.587785
vn 0.951057 0.000000 0.309017
vn 0.951057 0.000000 0.309017
vn 1.000000 0.000000 0.000001
vn 1.000000 0.000000 0.000001
s 1
f 1/1/1 2/2/2 22/23/3 21/22/4
f 2/2/2 3/3/5 23/24/6 22/23/3
f 3/3/5 4/4/7 24/25/8 23/24/6
f 4/4/7 5/5/9 25/26/10 24/25/8
f 5/5/9 6/6/11 26/27/12 25/26/10
f 6/6/11 7/7/13 27/28/14 26/27/12
f 7/7/13 8/8/15 28/29/16 27/28/14
f 8/8/15 9/9/17 29/30/18 28/29/16
f 9/9/17 10/10/19 30/31/20 29/30/18
f 10/10/19 11/11/21 31/32/22 30/31/20
f 11/11/21 12/12/23 32/33/24 31/32/22
f 12/12/23 13/13/25 33/34/26 32/33/24
f 13/13/25 14/14/27 34/35/28 33/34/26
f 14/14/27 15/15/29 35/36/30 34/35/28
f 15/15/29 16/16/31 36/37/32 35/36/30
f 16/16/31 17/17/33 37/38/34 36/37/32
f 17/17/33 18/18/35 38/39/36 37/38/34
f 18/18/35 19/19/37 39/40/38 38/39/36
f 19/19/37 20/20/39 40/41/40 39/40/38
f 20/20/39 1/21/1 21/42/4 40/41/40
