# This file uses centimeters as units for non-parametric coordinates.

g default
v -0.100000 -0.050000 0.050000
v 0.100000 -0.050000 0.050000
v -0.100000 0.050000 0.050000
v 0.100000 0.050000 0.050000
v -0.100000 0.050000 -0.050000
v 0.100000 0.050000 -0.050000
v -0.100000 -0.050000 -0.050000
v 0.100000 -0.050000 -0.050000
vt 0.496374 0.118509
vt 0.666847 0.120047
vt 0.500484 0.374788
vt 0.251975 0.372254
vt 0.413866 0.495485
vt 0.665286 0.493260
vt 0.508953 0.617553
vt 0.586134 0.618886
vt 0.508953 0.748163
vt 0.669375 0.748163
vt 0.419133 0.247362
vt 0.419133 0.372254
vt 0.333533 0.118509
vt 0.333533 0.245179
vt 0.251975 0.247362
vt 0.666847 0.241952
vt 0.665286 0.374788
vt 0.413866 0.618886
vt 0.669375 0.617553
vt 0.500484 0.493260
vt 0.586134 0.495485
vt 0.506550 0.241952
vt 0.506550 0.120047
vt 0.496374 0.245179
vn 0.000000 0.000000 1.000000
vn 0.000000 0.000000 1.000000
vn 0.000000 0.000000 1.000000
vn 0.000000 0.000000 1.000000
vn 0.000000 1.000000 0.000000
vn 0.000000 1.000000 0.000000
vn 0.000000 1.000000 0.000000
vn 0.000000 1.000000 0.000000
vn 0.000000 0.000000 -1.000000
vn 0.000000 0.000000 -1.000000
vn 0.000000 0.000000 -1.000000
vn 0.000000 0.000000 -1.000000
vn 0.000000 -1.000000 0.000000
vn 0.000000 -1.000000 0.000000
vn 0.000000 -1.000000 0.000000
vn 0.000000 -1.000000 0.000000
vn 1.000000 0.000000 0.000000
vn 1.000000 0.000000 0.000000
vn 1.000000 0.000000 0.000000
vn 1.000000 0.000000 0.000000
vn -1.000000 0.000000 0.000000
vn -1.000000 0.000000 0.000000
vn -1.000000 0.000000 0.000000
vn -1.000000 0.000000 0.000000
s off
g pCube1
f 1/23/1 2/2/2 4/16/3 3/22/4
f 3/3/5 4/17/6 6/6/7 5/20/8
f 5/5/9 6/21/10 8/8/11 7/18/12
f 7/7/13 8/19/14 2/10/15 1/9/16
f 2/15/17 8/11/18 6/12/19 4/4/20
f 7/13/21 1/1/22 3/24/23 5/14/24
