# This file uses centimeters as units for non-parametric coordinates.

mtllib Chest.mtl
g default
v -0.070841 0.393993 -0.260284
v 0.067238 0.361259 -0.269333
v -0.069711 0.412687 -0.310654
v 0.068369 0.379953 -0.319703
v -0.093225 0.322859 -0.344520
v 0.044854 0.290125 -0.353569
v -0.094356 0.304165 -0.294150
v 0.043724 0.271431 -0.303199
v -0.048641 0.385889 -0.291460
v -0.032059 0.453026 -0.266171
v 0.000923 0.465427 -0.260828
v 0.035531 0.457222 -0.263096
v 0.058545 0.431546 -0.272109
v 0.040094 0.364853 -0.297275
v -0.053924 0.391547 -0.302799
v -0.036451 0.462562 -0.276050
v 0.000654 0.476513 -0.270039
v 0.039588 0.467283 -0.272591
v 0.065479 0.438398 -0.282730
v 0.045902 0.367881 -0.309341
v -0.065016 0.394176 -0.302072
v -0.045761 0.472948 -0.272405
v -0.000410 0.490000 -0.265058
v 0.047175 0.478719 -0.268176
v 0.078820 0.443414 -0.280569
v 0.056994 0.365252 -0.310068
v -0.070824 0.391148 -0.290006
v -0.050678 0.473798 -0.258879
v -0.001205 0.492400 -0.250865
v 0.050707 0.480093 -0.254267
v 0.085228 0.441579 -0.267786
v 0.062278 0.359594 -0.298729
v -0.065541 0.385490 -0.278667
v -0.046286 0.464262 -0.249000
v -0.000936 0.481313 -0.241654
v 0.046650 0.470032 -0.244772
v 0.078295 0.434728 -0.257164
v 0.056469 0.356566 -0.286663
v -0.054449 0.382861 -0.279394
v -0.036976 0.453876 -0.252646
v 0.000128 0.467827 -0.246635
v 0.039062 0.458597 -0.249186
v 0.064953 0.429712 -0.259326
v 0.045377 0.359195 -0.285936
v -0.493364 0.000000 0.250000
v 0.493364 0.000000 0.250000
v -0.493364 0.500000 0.250000
v 0.493364 0.500000 0.250000
v -0.493364 0.500000 -0.250000
v 0.493364 0.500000 -0.250000
v -0.493364 0.000000 -0.250000
v 0.493364 0.000000 -0.250000
v -0.493364 0.605274 0.000000
v 0.493364 0.605274 0.000000
v -0.493364 0.581349 0.125000
v 0.493364 0.581349 0.125000
v 0.493364 0.581349 -0.125000
v -0.493364 0.581349 -0.125000
v 0.493364 0.383776 0.250000
v -0.493364 0.383776 0.250000
v 0.493364 0.383776 -0.250000
v -0.493364 0.383776 -0.250000
v -0.001802 0.377626 -0.264808
v -0.025316 0.287798 -0.298675
v -0.024186 0.306492 -0.349045
v -0.000671 0.396320 -0.315178
v -0.028949 0.329546 -0.340595
v -0.019153 0.327224 -0.341237
v -0.009357 0.324901 -0.341879
v 0.012932 0.367644 -0.325516
v -0.001798 0.393519 -0.316243
v -0.027562 0.377244 -0.322862
v -0.002461 0.351245 -0.331947
v -0.022052 0.355890 -0.330663
v 0.059663 0.346697 -0.332241
v 0.058532 0.328003 -0.281871
v -0.010507 0.344370 -0.277346
v -0.079547 0.360737 -0.272822
v -0.078416 0.379431 -0.323192
v -0.011077 0.327574 -0.340926
v -0.004603 0.352305 -0.331602
v -0.026112 0.331138 -0.339941
v -0.018594 0.329356 -0.340433
v -0.024901 0.376264 -0.323166
v -0.019638 0.355870 -0.330617
v 0.010098 0.367967 -0.325459
v -0.002633 0.390330 -0.317445
v -0.011258 0.324574 -0.332843
v -0.004784 0.349305 -0.323519
v -0.026294 0.328138 -0.331858
v -0.018776 0.326356 -0.332351
v -0.025082 0.373264 -0.315083
v -0.019820 0.352870 -0.322534
v 0.009917 0.364967 -0.317377
v -0.002815 0.387330 -0.309363
v -0.012739 0.350584 -0.323262
vt 1.000000 0.000000
vt 1.000000 0.000000
vt 0.000000 0.000000
vt 0.000000 1.000000
vt 0.000000 0.000000
vt 1.000000 1.000000
vt 0.000000 0.000000
vt 1.000000 1.000000
vt 0.000000 1.000000
vt 1.000000 1.000000
vt 1.000000 0.000000
vt 1.000000 1.000000
vt 0.000000 0.000000
vt 0.000000 1.000000
vt 0.995852 0.503338
vt 0.994987 0.503338
vt 0.994987 0.502618
vt 0.995852 0.502618
vt 0.996717 0.503338
vt 0.996717 0.502618
vt 0.997581 0.503338
vt 0.997581 0.502618
vt 0.998446 0.503338
vt 0.998446 0.502618
vt 0.999311 0.503338
vt 0.999311 0.502618
vt 0.994987 0.501899
vt 0.995852 0.501899
vt 0.996717 0.501899
vt 0.997581 0.501899
vt 0.998446 0.501899
vt 0.999311 0.501899
vt 0.994987 0.501179
vt 0.995852 0.501179
vt 0.996717 0.501179
vt 0.997581 0.501179
vt 0.998446 0.501179
vt 0.999311 0.501179
vt 0.994987 0.500460
vt 0.995852 0.500460
vt 0.996717 0.500460
vt 0.997581 0.500460
vt 0.998446 0.500460
vt 0.999311 0.500460
vt 0.994987 0.499740
vt 0.995852 0.499740
vt 0.996717 0.499740
vt 0.997581 0.499740
vt 0.998446 0.499740
vt 0.999311 0.499740
vt 0.994987 0.499020
vt 0.995852 0.499020
vt 0.996717 0.499020
vt 0.997581 0.499020
vt 0.998446 0.499020
vt 0.999311 0.499020
vt 0.000000 0.000000
vt 1.000000 1.000000
vt 1.000000 0.000000
vt 0.000000 0.000000
vt 0.000000 1.000000
vt 1.000000 1.000000
vt 0.000000 1.000000
vt 1.000000 0.000000
vt 0.000000 1.000000
vt 1.000000 0.000000
vt 0.000000 1.000000
vt 0.000000 0.000000
vt 1.000000 0.000000
vt 1.000009 0.999968
vt 0.500000 1.000000
vt 0.500000 0.000000
vt 0.700000 0.000000
vt 0.700000 1.000000
vt 0.000000 1.000000
vt 0.000000 0.000000
vt 1.000000 0.000000
vt 1.000000 1.000000
vt 0.000000 1.000000
vt 0.000000 0.000000
vt 1.000000 0.000000
vt 0.500000 1.000000
vt 0.000000 0.000000
vt 1.000000 0.000000
vt 0.700000 1.000000
vt 0.300000 1.000000
vt 0.000000 0.000000
vt 0.500000 1.000000
vt 0.300000 1.000000
vt 0.300000 0.000000
vt 0.300000 1.000000
vt 1.000000 1.000000
vt 1.000000 0.000000
vt 0.700000 1.000000
vt 0.000000 1.000000
vt 0.000000 0.000000
vt 1.000000 1.000000
vt 1.000000 1.000000
vt 1.000000 0.000000
vt 1.000000 1.000000
vt 0.000000 1.000000
vt 0.000000 0.000000
vt 1.000000 0.000000
vt 1.000000 1.000000
vt 0.000000 1.000000
vt 0.000000 0.000000
vt 1.000000 0.000000
vt 1.000000 1.000000
vt 1.000000 1.000000
vt 0.000000 1.000000
vt 0.000000 0.000000
vt 1.000000 0.000000
vt 1.000000 1.000000
vt 0.000000 1.000000
vt 0.000000 0.000000
vt 1.000000 0.000000
vt 0.000000 1.000000
vt 0.000000 1.000000
vt 0.499894 0.011789
vt 0.500088 0.991044
vt 0.500106 0.005559
vt 0.499951 0.990194
vt 0.500106 0.011789
vt 0.501428 0.993765
vt 0.500230 -0.001570
vt 0.499915 0.990194
vt 0.437500 0.500000
vt 0.500000 0.500000
vt 0.562500 0.500000
vt 0.562500 0.250000
vt 0.500000 0.150000
vt 0.437500 0.250000
vt 0.562500 0.375000
vt 0.437500 0.375000
vt 1.000000 0.370223
vt 0.370223 1.000000
vt 1.000000 0.629777
vt 0.370223 0.000000
vt 0.500120 0.631077
vt 0.629777 0.000000
vt 0.000000 0.629777
vt 0.629777 1.000000
vt 0.000000 0.370223
vt 0.002240 0.588715
vt 0.001784 0.590561
vt 0.001672 0.590374
vt 0.002100 0.588642
vt 0.001142 0.590402
vt 0.001179 0.590253
vt 0.003252 0.587562
vt 0.003066 0.587540
vt 0.000499 0.590243
vt 0.000686 0.590131
vt 0.002289 0.585757
vt 0.002234 0.585981
vt 0.000955 0.588398
vt 0.001114 0.588398
vt 0.000597 0.586906
vt 0.000771 0.586973
vt 0.000000 0.000000
vt 1.000000 0.000000
vt 1.000000 1.000000
vt 0.000000 1.000000
vt 0.000000 0.000000
vt 1.000000 0.000000
vt 1.000000 1.000000
vt 0.000000 1.000000
vt 0.000000 0.000000
vt 1.000000 0.000000
vt 1.000000 1.000000
vt 0.000000 1.000000
vt 0.000000 0.000000
vt 1.000000 0.000000
vt 1.000000 1.000000
vt 0.000000 1.000000
vt 0.000000 0.000000
vt 1.000000 0.000000
vt 1.000000 1.000000
vt 0.000000 1.000000
vt 0.000000 0.000000
vt 1.000000 0.000000
vt 1.000000 1.000000
vt 0.000000 1.000000
vt 0.000000 0.000000
vt 1.000000 0.000000
vt 1.000000 1.000000
vt 0.000000 1.000000
vt 0.000000 0.000000
vt 1.000000 0.000000
vt 1.000000 1.000000
vt 0.000000 1.000000
vt 0.000000 0.400000
vt 0.000000 0.000000
vt 0.500000 0.500000
vt 0.538551 0.011168
vt 1.000000 0.000000
vt 1.000000 0.400000
vt 1.000000 1.000000
vt 0.500000 1.000000
vt 0.000000 1.000000
vn 0.237911 0.908842 0.342644
vn 0.237911 0.908842 0.342644
vn 0.237911 0.908842 0.342644
vn 0.237911 0.908842 0.342644
vn 0.021041 0.347867 -0.937308
vn 0.021041 0.347867 -0.937308
vn 0.021041 0.347867 -0.937308
vn 0.021042 0.347867 -0.937308
vn 0.021042 0.347868 -0.937308
vn -0.237911 -0.908842 -0.342644
vn -0.237911 -0.908842 -0.342644
vn -0.237911 -0.908842 -0.342644
vn -0.237911 -0.908842 -0.342644
vn -0.021041 -0.347868 0.937308
vn -0.021041 -0.347868 0.937307
vn -0.021041 -0.347868 0.937307
vn -0.021042 -0.347868 0.937308
vn 0.971059 -0.230205 -0.063638
vn 0.971059 -0.230205 -0.063638
vn 0.971059 -0.230205 -0.063638
vn 0.971059 -0.230205 -0.063638
vn -0.971059 0.230205 0.063638
vn -0.971059 0.230205 0.063638
vn -0.971059 0.230205 0.063638
vn -0.971059 0.230205 0.063638
vn 0.869830 -0.468575 -0.154378
vn 0.974183 -0.217912 -0.059005
vn 0.571901 0.161935 -0.804181
vn 0.336464 0.134337 -0.932065
vn 0.073807 -0.935498 -0.345538
vn 0.047934 -0.040751 -0.998019
vn -0.526340 -0.793223 -0.306208
vn -0.184031 0.014240 -0.982817
vn -0.999166 -0.025498 -0.031894
vn -0.353213 0.297836 -0.886868
vn -0.967758 0.242457 0.068259
vn -0.533645 0.424023 -0.731729
vn -0.570409 0.407757 -0.712999
vn -0.552694 0.588180 -0.590400
vn -0.028100 0.844457 -0.534886
vn 0.336331 0.758062 -0.558770
vn 0.679636 0.296036 -0.671161
vn 0.599513 0.130408 -0.789669
vn -0.974662 0.215960 0.058270
vn -0.829044 0.530058 0.178112
vn -0.073807 0.935498 0.345539
vn 0.526341 0.793223 0.306208
vn 0.993455 0.098004 0.058675
vn 0.967219 -0.244395 -0.068990
vn -0.603998 -0.147539 0.783210
vn -0.584104 0.068906 0.808748
vn -0.061537 0.291680 0.954534
vn 0.302895 0.205286 0.930652
vn 0.648226 -0.223238 0.727989
vn 0.565924 -0.424888 0.706541
vn 0.537303 -0.410050 0.736997
vn 0.297433 -0.510919 0.806533
vn 0.009121 -0.682416 0.730907
vn -0.222845 -0.627424 0.746109
vn -0.392244 -0.347419 0.851730
vn -0.568244 -0.147962 0.809448
vn 0.000000 0.000000 1.000000
vn 0.000000 0.000000 1.000000
vn 0.000000 0.000000 1.000000
vn 0.000000 0.000000 1.000000
vn 0.000000 1.000000 0.000000
vn 0.000000 1.000000 0.000000
vn 0.000000 0.921621 -0.388092
vn 0.000000 0.921621 -0.388092
vn 0.000000 0.000000 -1.000000
vn 0.000000 0.000000 -1.000000
vn 0.000000 0.000000 -1.000000
vn 0.000000 0.000000 -1.000000
vn 0.000000 -1.000000 0.000000
vn 0.000000 -1.000000 0.000000
vn 0.000000 -1.000000 0.000000
vn 1.000000 0.000000 0.000000
vn 1.000000 -0.000000 -0.000000
vn 1.000000 -0.000000 -0.000000
vn 1.000000 0.000000 0.000000
vn -1.000000 0.000000 0.000000
vn -1.000000 0.000000 -0.000000
vn -1.000000 0.000000 0.000000
vn 0.000000 0.921621 0.388092
vn 0.000000 0.921621 0.388092
vn 0.000000 1.000000 0.000000
vn 0.000000 1.000000 0.000000
vn 1.000000 0.000000 0.000000
vn 1.000000 0.000000 0.000000
vn 1.000000 0.000000 0.000000
vn 0.000000 -1.000000 0.000000
vn 0.000000 -1.000000 0.000000
vn 0.000000 -1.000000 0.000000
vn -1.000000 0.000000 0.000000
vn -1.000000 -0.000000 0.000000
vn -1.000000 -0.000000 0.000000
vn -1.000000 0.000000 0.000000
vn 0.000000 0.838139 0.545457
vn 0.000000 0.838139 0.545457
vn 0.000000 0.921621 0.388092
vn 0.000000 0.921621 0.388092
vn -1.000000 0.000000 0.000000
vn -1.000000 0.000001 0.000000
vn -1.000000 0.000000 0.000000
vn 1.000000 0.000000 0.000000
vn 1.000000 0.000001 -0.000000
vn 1.000000 0.000000 0.000000
vn 0.000000 0.921621 -0.388092
vn 0.000000 0.921621 -0.388092
vn 0.000000 0.838139 -0.545457
vn 0.000000 0.838139 -0.545457
vn 0.000000 0.000000 1.000000
vn 0.000000 0.000000 1.000000
vn 0.000000 0.000000 -1.000000
vn 0.000000 0.000000 -1.000000
vn 1.000000 0.000000 0.000000
vn 1.000000 0.000000 0.000000
vn -1.000000 0.000000 0.000000
vn -1.000000 0.000000 0.000000
vn 1.000000 0.000001 0.000000
vn 1.000000 0.000000 0.000000
vn 1.000000 0.000000 0.000000
vn -1.000000 0.000001 -0.000000
vn -1.000000 0.000000 0.000000
vn -1.000000 0.000000 0.000000
vn -0.021042 -0.347868 0.937308
vn -0.021042 -0.347868 0.937308
vn -0.237911 -0.908842 -0.342644
vn -0.237911 -0.908842 -0.342644
vn 0.021041 0.347868 -0.937308
vn 0.021041 0.347867 -0.937308
vn 0.021041 0.347868 -0.937308
vn 0.021041 0.347867 -0.937308
vn 0.237911 0.908842 0.342644
vn 0.237911 0.908842 0.342644
vn 0.021037 0.347866 -0.937308
vn 0.021038 0.347858 -0.937311
vn 0.021041 0.347868 -0.937307
vn 0.021041 0.347867 -0.937308
vn 0.021042 0.347868 -0.937307
vn 0.971059 -0.230205 -0.063638
vn 0.971059 -0.230205 -0.063638
vn -0.021042 -0.347868 0.937308
vn -0.021042 -0.347868 0.937308
vn -0.021042 -0.347868 0.937308
vn -0.971059 0.230205 0.063638
vn -0.971059 0.230205 0.063638
vn 0.021041 0.347867 -0.937308
vn 0.021042 0.347868 -0.937307
vn 0.021047 0.347872 -0.937306
vn 0.021049 0.347870 -0.937307
vn 0.021047 0.347866 -0.937308
vn 0.021045 0.347869 -0.937307
vn 0.021041 0.347876 -0.937304
vn 0.021045 0.347869 -0.937307
vn 0.021052 0.347870 -0.937306
vn 0.021048 0.347875 -0.937305
vn -0.971059 0.230205 0.063637
vn -0.971059 0.230205 0.063637
vn -0.971059 0.230205 0.063637
vn -0.971059 0.230205 0.063637
vn 0.237900 0.908845 0.342644
vn 0.237900 0.908845 0.342644
vn 0.237900 0.908845 0.342644
vn 0.237900 0.908845 0.342644
vn 0.237918 0.908844 0.342633
vn 0.237918 0.908844 0.342633
vn 0.237918 0.908844 0.342633
vn 0.237918 0.908844 0.342633
vn 0.971635 0.213763 0.101144
vn 0.971635 0.213763 0.101144
vn 0.971635 0.213763 0.101144
vn 0.971635 0.213763 0.101144
vn -0.881155 -0.436491 -0.181775
vn -0.881155 -0.436491 -0.181775
vn -0.881155 -0.436491 -0.181775
vn -0.881155 -0.436491 -0.181775
vn 0.563007 -0.778858 -0.276413
vn 0.563007 -0.778857 -0.276413
vn 0.563007 -0.778858 -0.276413
vn 0.563007 -0.778857 -0.276413
vn -0.752711 0.622548 0.214151
vn -0.752711 0.622548 0.214151
vn -0.752711 0.622548 0.214151
vn -0.752711 0.622548 0.214151
vn 0.971059 -0.230205 -0.063639
vn 0.971059 -0.230205 -0.063639
vn 0.971059 -0.230205 -0.063639
vn 0.971059 -0.230205 -0.063639
vn 0.025179 0.345715 -0.938002
vn 0.021647 0.346678 -0.937734
vn 0.021048 0.347970 -0.937270
vn 0.020723 0.346640 -0.937769
vn 0.019962 0.347043 -0.937637
vn 0.015934 0.347811 -0.937429
vn 0.020164 0.348850 -0.936962
vn 0.021261 0.348673 -0.937003
vn 0.022282 0.348328 -0.937108
s 1
g pCube3
usemtl Sword:Weapon
f 2/2/1 4/58/2 66/126/3 63/119/4
s 2
f 6/6/5 65/124/6 69/129/7 73/133/8 75/135/9
s 3
f 6/66/10 8/8/11 64/122/12 65/123/13
s 4
f 64/121/14 8/64/15 76/137/16 77/139/17
s 5
f 75/136/18 76/138/19 8/11/20 6/12/21
s 6
f 7/13/22 78/140/23 79/142/24 5/14/25
s 7
f 10/15/26 9/16/27 15/17/28 16/18/29
f 11/19/30 10/15/26 16/18/29 17/20/31
f 12/21/32 11/19/30 17/20/31 18/22/33
f 13/23/34 12/21/32 18/22/33 19/24/35
f 14/25/36 13/23/34 19/24/35 20/26/37
f 16/18/29 15/17/28 21/27/38 22/28/39
f 17/20/31 16/18/29 22/28/39 23/29/40
f 18/22/33 17/20/31 23/29/40 24/30/41
f 19/24/35 18/22/33 24/30/41 25/31/42
f 20/26/37 19/24/35 25/31/42 26/32/43
f 22/28/39 21/27/38 27/33/44 28/34/45
f 23/29/40 22/28/39 28/34/45 29/35/46
f 24/30/41 23/29/40 29/35/46 30/36/47
f 25/31/42 24/30/41 30/36/47 31/37/48
f 26/32/43 25/31/42 31/37/48 32/38/49
f 28/34/45 27/33/44 33/39/50 34/40/51
f 29/35/46 28/34/45 34/40/51 35/41/52
f 30/36/47 29/35/46 35/41/52 36/42/53
f 31/37/48 30/36/47 36/42/53 37/43/54
f 32/38/49 31/37/48 37/43/54 38/44/55
f 34/40/51 33/39/50 39/45/56 40/46/57
f 35/41/52 34/40/51 40/46/57 41/47/58
f 36/42/53 35/41/52 41/47/58 42/48/59
f 37/43/54 36/42/53 42/48/59 43/49/60
f 38/44/55 37/43/54 43/49/60 44/50/61
f 40/46/57 39/45/56 9/51/27 10/52/26
f 41/47/58 40/46/57 10/52/26 11/53/30
f 42/48/59 41/47/58 11/53/30 12/54/32
f 43/49/60 42/48/59 12/54/32 13/55/34
f 44/50/61 43/49/60 13/55/34 14/56/36
s 8
f 45/67/62 46/68/63 59/69/64 60/70/65
s off
f 53/71/66 54/72/67 57/73/68 58/74/69
s 9
f 49/75/70 50/76/71 61/77/72 62/78/73
s off
f 51/79/74 52/80/75 46/81/76
s 10
f 54/82/77 59/83/78 61/84/79 57/85/80
s off
f 58/86/81 62/87/82 53/88/83
f 55/89/84 56/90/85 54/72/86 53/71/87
f 56/91/88 59/83/89 54/82/90
f 51/79/91 46/81/92 45/92/93
s 11
f 53/88/94 62/87/95 60/93/96 55/94/97
s off
f 47/95/98 48/96/99 56/90/100 55/89/101
f 55/94/102 60/93/103 47/97/104
f 57/85/105 61/84/106 50/98/107
f 58/74/108 57/73/109 50/99/110 49/100/111
s 8
f 60/101/65 59/102/64 48/103/112 47/104/113
s 9
f 62/105/73 61/106/72 52/107/114 51/108/115
s 10
f 61/109/79 59/110/78 46/111/116 52/112/117
s 11
f 60/113/96 62/114/95 51/115/118 45/116/119
s off
f 59/83/120 56/91/121 48/117/122
f 62/87/123 58/86/124 49/118/125
s 4
f 7/7/126 64/121/14 77/139/17 78/141/127
s 3
f 7/63/128 5/5/129 65/123/13 64/122/12
s 2
f 65/124/6 5/65/130 79/143/131 74/134/132 67/127/133
s 1
f 3/61/134 1/60/135 63/119/4 66/126/3
s 2
f 65/124/6 68/128/136 69/129/7
f 65/124/6 67/127/133 68/128/136
f 71/131/137 72/132/138 66/125/139
f 70/130/140 71/131/137 66/125/139
f 70/130/140 75/135/9 73/133/8
s 5
f 2/57/141 76/138/19 75/136/18 4/4/142
s 4
f 2/10/143 63/120/144 77/139/17 76/137/16
f 63/120/144 1/9/145 78/141/127 77/139/17
s 6
f 79/142/24 78/140/23 1/1/146 3/62/147
s 2
f 3/3/148 66/125/139 72/132/138 79/143/131
f 79/143/131 72/132/138 74/134/132
f 66/125/139 4/59/149 75/135/9 70/130/140
f 73/144/8 69/145/7 80/146/150 81/147/151
f 68/148/136 67/152/133 82/153/152 83/149/153
f 69/145/7 68/148/136 83/149/153 80/146/150
f 74/156/132 72/158/138 84/159/154 85/157/155
f 71/154/137 70/150/140 86/151/156 87/155/157
f 72/158/138 71/154/137 87/155/157 84/159/154
f 70/150/140 73/144/8 81/147/151 86/151/156
f 67/152/133 74/156/132 85/157/155 82/153/152
s off
f 81/160/158 80/161/159 88/162/160 89/163/161
f 83/164/162 82/165/163 90/166/164 91/167/165
f 80/168/166 83/169/167 91/170/168 88/171/169
f 85/172/170 84/173/171 92/174/172 93/175/173
f 87/176/174 86/177/175 94/178/176 95/179/177
f 84/180/178 87/181/179 95/182/180 92/183/181
f 86/184/182 81/185/183 89/186/184 94/187/185
f 82/188/186 85/189/187 93/190/188 90/191/189
s 14
f 89/192/190 88/193/191 96/194/192
f 91/195/193 90/196/194 96/194/192
f 88/193/191 91/195/193 96/194/192
f 93/197/195 92/198/196 96/194/192
f 95/199/197 94/200/198 96/194/192
f 92/198/196 95/199/197 96/194/192
f 94/200/198 89/192/190 96/194/192
f 90/196/194 93/197/195 96/194/192
