# This file uses centimeters as units for non-parametric coordinates.

v 0.500000 0.000000 -0.305564
v -0.500000 0.000000 -0.305564
v 0.000000 0.000000 -0.118684
v -0.000000 0.000000 0.118684
v -0.250000 0.000000 -0.188468
v -0.250000 0.000000 -0.058943
v 0.250000 0.000000 -0.188468
v 0.250000 0.000000 -0.058943
vt 0.000200 0.000050
vt 0.999800 0.000050
vt 0.500000 0.000000
vt 0.500000 1.000000
vt 0.750000 0.000000
vt 0.750000 1.000000
vt 0.250000 0.000000
vt 0.250000 1.000000
vn 0.000000 1.000000 0.000000
vn 0.000000 1.000000 0.000000
vn 0.000000 1.000000 0.000000
vn 0.000000 1.000000 0.000000
vn 0.000000 1.000000 0.000000
vn 0.000000 1.000000 0.000000
vn 0.000000 1.000000 0.000000
vn 0.000000 1.000000 0.000000
s 1
f 1/1/1 7/7/2 8/8/3
f 4/4/4 3/3/5 5/5/6 6/6/7
f 6/6/7 5/5/6 2/2/8
f 8/8/3 7/7/2 3/3/5 4/4/4
